<svg width="32" height="36" viewBox="0 0 32 36" fill="none" xmlns="http://www.w3.org/2000/svg">
<path d="M15.375 0.131653L1.65078 8.46642L15.375 8.18439V0.131653ZM16.625 0.131653V8.18439L30.3516 8.46642L16.625 0.131653ZM20.6406 4.50314C21.1172 4.7629 21.2812 5.03751 21.8203 4.81486C22.6562 4.87423 23.5625 5.24533 23.9766 5.98009C24.3438 6.31407 24.0938 6.91525 23.5703 6.91525C22.8125 6.92267 22.0312 6.46251 22.4297 6.29923C22.7969 6.15079 23.5781 6.36603 23.2109 5.89103C22.9297 5.55704 22.3516 5.31212 21.9375 5.45314C21.8125 5.95782 21.2031 5.75001 21 5.40118C20.8203 4.97072 20.2891 4.79259 19.8281 4.81486C19.3516 5.01525 19.9531 5.46798 20.2422 5.54962C20.8594 5.7129 20.2578 6.10626 19.9219 5.92814C19.5938 5.75001 18.75 5.21564 18.8672 4.56993C19.3203 4.02146 20.1016 4.22704 20.6406 4.50314ZM12.1641 4.24337C12.5938 4.28048 13.125 4.46603 12.9609 4.97814C12.625 5.49767 12.1953 5.9504 11.5469 6.07658C11.0391 6.32892 10.3828 6.40314 9.85938 6.21759C9.57031 6.04689 8.80469 5.52736 8.69531 5.96525C8.53125 7.06368 8.75 6.93751 7.82812 7.28634V5.4754C8.60156 5.18595 9.47656 5.14142 10.1953 5.57189C10.8203 5.88361 11.7109 5.68322 12.0859 5.14884C12.1953 4.66642 11.4531 4.80743 11.1328 4.8965C10.9219 4.2879 11.75 4.33986 12.1641 4.24337ZM14.8984 9.37931L0.327344 9.68361L5.89062 24.0004L14.8984 9.37931ZM17.1016 9.37931L26.1094 24.0004L31.6719 9.68361L17.1016 9.37931ZM16 9.93595L6.85156 24.7945H25.1484L16 9.93595ZM26.4141 11.502C27.5 12.118 28.0938 13.4465 28.1406 14.6934C28.0391 15.7027 28.0859 16.1629 26.9531 16.2817C25.8203 16.4004 25.0859 14.8567 24.6328 13.8621C24.3672 13.1274 24.1797 12.0809 24.7656 11.5391C25.2422 11.1828 25.9375 11.2348 26.4141 11.502ZM8.9375 12.6969C9.10156 12.9938 8.89844 13.543 8.5625 13.5949C8.17969 13.6469 8.26562 12.9047 7.82812 12.734C7.28906 12.5633 6.76562 13.1496 6.65625 13.5949C7.46875 13.2981 8.24219 14.1219 8.24219 14.8567C8.21094 15.725 7.625 16.6973 6.70312 16.9422H6.26562C5.27344 16.8902 4.83594 15.7695 5.15625 14.968C5.5 13.7953 6 12.452 7.28125 11.9547C7.94531 11.6652 8.76562 12.1922 8.9375 12.6969ZM25.6484 12.0734C25.0938 12.066 25.3047 12.8156 25.3906 13.1496C25.6641 14.0031 25.9609 15.1238 26.8672 15.3762C27.3984 15.2871 27.2109 14.4262 27.1562 14.1516C26.7891 13.3426 26.6016 12.4223 25.6484 12.0734ZM0.0625 12.4297V25.2844L4.89844 24.8613L0.0625 12.4297ZM31.9375 12.4297L27.1016 24.8613L31.9375 25.2844V12.4297ZM22.7266 12.4817L24.9531 17.1945L24.1719 17.5211L22.6094 14.3074C22.1328 14.5301 21.5938 14.968 21.4688 14.2035C21.3672 13.9141 22.1328 13.825 22.1016 13.3203C22.0781 12.8082 22.2734 12.4149 22.7266 12.4817ZM6.16406 14.5152C5.97656 14.8938 5.84375 15.2797 5.95312 15.6953C6.08594 16.3484 7.00781 16.1703 7.17188 15.6359C7.38281 15.2649 7.47656 14.7676 7.13281 14.4707C6.8125 14.2184 6.4375 14.2629 6.16406 14.5152ZM31.8203 17.6027C31.8125 18.9832 31.9062 20.5121 31.0625 21.707C30.9922 21.7961 30.8906 21.8481 30.7734 21.8926C30.3203 21.5883 30.5391 21.0539 30.8672 20.7422C30.9453 21.284 31.2969 20.527 31.3828 20.3266C31.4844 20.0891 31.6641 19.0129 31.3047 19.5695C31.3594 19.8664 30.7734 20.5418 30.5781 20.1707C30.1875 19.102 30.5781 17.907 31.125 16.9422C31.5703 16.482 31.8984 17.2688 31.8203 17.6027ZM0.682031 16.8457C0.728125 16.8531 0.786719 16.9199 0.875781 17.1129V21.6477C0.305469 21.1281 0.526562 20.3117 0.528125 19.6883C0.528125 19.0649 0.657031 18.4785 0.428125 17.9664C0.0671875 17.8402 -0.0242189 16.7047 0.180469 17.0238C0.525 17.3801 0.544531 16.8235 0.682031 16.8457ZM14.6484 17.4098C15.2812 17.7438 15.7266 18.4785 15.4922 19.1613C15.3281 20.2895 13.3828 20.7274 13.1172 21.3656C13.0234 21.5883 15.1016 21.4844 15.4766 21.4844C15.5156 21.7813 15.5938 22.2785 15.1797 22.3527C14.0469 22.2637 12.8437 22.3082 11.6562 22.3082C11.6875 21.477 12.2344 20.7274 12.9844 20.3192C13.5234 19.9555 14.1875 19.6289 14.3984 18.9906C14.5391 18.6567 14.3516 18.3004 14.0391 18.1371C13.7109 17.9219 13.1797 17.9664 13.0078 18.3375C12.8516 18.6195 12.6641 19.0129 12.3281 19.05C12.1016 19.0797 11.625 19.0871 11.7656 18.6863C11.875 18.2707 12.0312 17.8328 12.4062 17.5582C13.0938 17.0906 13.9609 17.0609 14.6484 17.4098ZM18.8125 17.3059C19.3438 17.4692 19.75 17.8922 19.9297 18.3895C20.4062 19.4805 20.3594 20.8461 19.5859 21.7961C19.2344 22.1524 18.7891 22.4715 18.2578 22.4715C17.2812 22.4641 16.5078 21.6477 16.3203 20.7793C16.0781 19.7848 16.1797 18.6492 16.8594 17.8254C17.3906 17.2613 18.1094 17.0609 18.8125 17.3059ZM31.0078 17.907C30.8828 18.3449 30.75 18.9016 30.9531 19.3395C31.3516 19.191 31.375 18.627 31.4688 18.2633C31.5391 17.8106 31.1953 17.3281 31.0078 17.907ZM17.2422 19.4731C17.2891 20.2524 17.375 21.1652 18 21.566C18.3828 21.6996 18.7578 21.4027 18.8672 21.0688C19.0156 20.6012 19.0469 20.1113 19.0547 19.6289C19.0391 19.102 18.9375 18.5156 18.5312 18.1371C17.5781 17.8106 17.3359 18.9461 17.2422 19.4731ZM29.9062 18.4266V22.9688L29.5625 23.466V20.3266C29.2031 20.8832 28.8516 21.002 29.0859 20.2598C29.5625 19.7328 29.4609 18.9684 29.9062 18.4266ZM2.55078 19.332C2.61328 19.5992 2.95078 20.6531 2.71016 20.4305C2.55625 20.334 2.42734 20.0668 2.44375 19.9777C2.32266 19.7551 2.2125 19.525 2.11484 19.2949C1.88437 19.5918 1.80547 19.9109 1.86953 20.2895C1.88516 20.1707 1.96172 20.1188 2.13437 20.2375C2.74687 21.1727 3.08516 22.3973 2.70391 23.466L2.53047 23.5477C1.72109 23.1172 1.63984 22.1078 1.48125 21.3211C1.36016 20.4082 1.41953 19.4879 1.66094 18.5973C2.06719 18.3152 2.37656 18.9981 2.55078 19.332ZM2 20.8313C1.68281 21.1801 1.82344 21.7813 1.97031 22.1969C2.05703 22.6051 2.51094 22.9539 2.44375 22.3156C2.49766 21.4918 2.26172 21.3731 2 20.8313ZM7.1875 25.982L16 35.1184L24.8125 25.982H7.1875ZM5.51562 26.0043L1.30937 26.368L6.32812 29.4184C6.125 29.218 5.94531 28.9953 5.77344 28.7652C5.36719 28.2531 4.95312 27.7559 4.29688 27.5332C3.61328 27.0508 3.96875 27.1399 4.52344 27.3402C4.44531 27.2067 4.46875 27.1473 4.53125 27.1473C4.70312 27.1324 5.1875 27.459 5.29688 27.6149L7.22656 29.9602L12.3125 33.0551L5.51562 26.0043ZM26.4844 26.0043L23.1719 29.4406C23.6719 29.2106 24.0547 28.8098 24.5 28.5203C24.6875 28.4164 24.7891 28.3793 24.8359 28.3793C25 28.3793 24.4141 28.9063 24.2344 29.1438C23.5 29.8711 22.9844 30.8508 22 31.3035L23.4766 29.4852C23.2969 29.5817 23.0078 29.7227 22.8359 29.7895L19.6875 33.0551L25.5078 29.5223C25.9297 29.025 25.6562 29.1067 25.0625 29.4555L24.1719 29.9008C25.0625 28.884 26.5781 27.8004 27.2969 27.2586C28.0156 26.7168 28.5391 26.5313 27.9375 27.1473L26.9531 28.3348C27.7344 27.7707 27.0234 28.6242 26.6016 28.743C26.5469 28.8172 26.4922 28.8914 26.4297 28.9582L30.6875 26.368L26.4844 26.0043ZM14.4375 27.2586V30.4797H13.3906V28.2531C13 28.1492 12.5781 28.3793 12.1953 28.2309C11.8984 28.0156 12.2734 27.7262 12.5469 27.793C12.8047 27.7856 13.1406 27.8078 13.2734 27.5555C13.6172 27.2215 14.0234 27.2289 14.4375 27.2586ZM16.7031 27.2957C17.6484 27.3848 18.5938 27.3402 19.5625 27.3402C19.6797 27.5629 19.625 27.9192 19.3047 27.9266C18.7031 27.9488 17.6641 27.8078 17.2812 27.9711C16.6406 28.7504 17.7266 28.2531 18.1719 28.357C18.7188 28.4387 19.3438 28.5723 19.6641 29.0399C19.8281 29.2699 19.875 29.5817 19.7188 29.834C19.2656 30.3387 18.3906 30.6875 17.7422 30.643C17.1719 30.5984 16.5234 30.5613 16.1328 30.116C15.6328 29.3293 16.9531 29.6188 17.0859 29.8785C17.5547 30.2719 18.6719 30.0195 18.7031 29.5297C18.75 29.218 18.5391 29.0621 18.1641 28.9508C17.7891 28.8395 17.1797 29.025 16.8125 29.0844C16.4453 29.1438 16.0625 29.1215 16.1094 28.7578C16.1719 28.4461 16.3203 28.1567 16.3203 27.8301C16.3281 27.6074 16.4531 27.3106 16.7031 27.2957ZM27.1328 27.6668C27.1172 27.652 26.5859 28.0973 26.3594 28.268L25.125 29.2402C25.9531 28.7578 26.6328 28.3496 27.1328 27.6668ZM7.83594 28.7207C8.02344 28.7207 8.42188 29.0621 8.57031 29.2402L10.6094 31.5485C10.0078 31.3926 9.57031 31.0215 9.23438 30.5317C8.72656 29.9899 8.35156 29.2996 7.57812 29.077C6.875 28.7059 7.17188 28.602 7.74219 28.9137C7.71875 28.7727 7.75781 28.7207 7.83594 28.7207Z" fill="#0C0C0C"/>
</svg>
